<svg width="331" height="121" viewBox="0 0 331 121" fill="none" xmlns="http://www.w3.org/2000/svg">
<path d="M49.4992 0C28.1571 0 10.793 22.2051 10.793 49.4996C10.793 76.7941 28.1571 99 49.4992 99C70.8421 99 88.207 76.7941 88.207 49.4996C88.207 22.2051 70.8421 0 49.4992 0ZM49.4992 97.4521C29.01 97.4521 12.3408 75.9413 12.3408 49.4996C12.3408 23.0587 29.01 1.54788 49.4992 1.54788C69.9893 1.54788 86.6591 23.0587 86.6591 49.4996C86.6591 75.9405 69.9893 97.4521 49.4992 97.4521Z" fill="#492401"/>
<path d="M51.6121 47.7982C45.604 40.322 39.9287 33.2606 39.9287 18.9311C39.9287 12.3704 41.0796 6.94507 43.55 1.85642C43.7365 1.47177 43.5763 1.00895 43.1917 0.822432C42.8062 0.635139 42.3442 0.795344 42.1577 1.18077C39.5812 6.48767 38.3809 12.1281 38.3809 18.9311C38.3809 33.8054 44.2218 41.0735 50.4063 48.7695C56.5692 56.4393 62.9418 64.3714 62.9418 80.0599C62.9418 85.8799 62.0781 90.9833 60.3011 95.6594C60.1495 96.0595 60.3499 96.5061 60.7493 96.6578C60.8398 96.6919 60.9327 96.7081 61.024 96.7081C61.3359 96.7081 61.63 96.5185 61.7484 96.2097C63.5935 91.3548 64.4905 86.0719 64.4905 80.0599C64.4905 63.8257 57.9445 55.6785 51.6121 47.7982Z" fill="#492401"/>
<path d="M38.2476 2.33842C37.8506 2.1875 37.4009 2.38718 37.25 2.78731C35.4065 7.643 34.5103 12.9236 34.5103 18.9309C34.5103 19.3581 34.8562 19.7048 35.2842 19.7048C35.7122 19.7048 36.0581 19.3589 36.0581 18.9309C36.0581 13.1148 36.9211 8.01372 38.6965 3.3368C38.8482 2.93668 38.6477 2.49011 38.2476 2.33842Z" fill="#492401"/>
<path d="M48.5932 50.219C44.1732 44.7186 39.6031 39.0309 37.4144 30.4789C37.3084 30.0648 36.885 29.8148 36.4725 29.9208C36.0584 30.0269 35.8085 30.4487 35.9145 30.8627C38.186 39.7398 42.8637 45.5606 47.3889 51.1926C53.397 58.6688 59.0715 65.7295 59.0715 80.059C59.0715 86.6212 57.9191 92.0504 55.4464 97.1437C55.2599 97.5275 55.4201 97.9911 55.8047 98.1777C55.9139 98.2311 56.0292 98.2558 56.1422 98.2558C56.4293 98.2558 56.7056 98.0956 56.8387 97.8193C59.4183 92.5085 60.6194 86.865 60.6194 80.059C60.6194 65.1854 54.7793 57.9173 48.5932 50.219Z" fill="#492401"/>
<path d="M96.5966 99V50.4545H98.6193V58.1662H98.8722C100.01 55.6378 101.875 53.6151 104.466 52.098C107.079 50.581 110.06 49.8224 113.411 49.8224C113.663 49.8224 113.832 49.8224 113.916 49.8224C114 49.8224 114.169 49.8224 114.422 49.8224V51.8452C114.169 51.8452 114 51.8452 113.916 51.8452C113.832 51.8452 113.663 51.8452 113.411 51.8452C110.545 51.8452 107.996 52.4667 105.762 53.7099C103.55 54.953 101.801 56.6702 100.516 58.8615C99.2514 61.0528 98.6193 63.5601 98.6193 66.3835V99H96.5966ZM125.792 99V50.4545H127.815V99H125.792ZM126.803 41.6051C126.255 41.6051 125.781 41.4049 125.381 41.0046C124.981 40.6043 124.78 40.1302 124.78 39.5824C124.78 39.0346 124.981 38.5605 125.381 38.1602C125.781 37.7598 126.255 37.5597 126.803 37.5597C127.351 37.5597 127.825 37.7598 128.225 38.1602C128.626 38.5605 128.826 39.0346 128.826 39.5824C128.826 40.1302 128.626 40.6043 128.225 41.0046C127.825 41.4049 127.351 41.6051 126.803 41.6051ZM161.703 118.216C158.985 118.216 156.478 117.847 154.181 117.11C151.884 116.393 149.904 115.308 148.239 113.854C146.575 112.422 145.332 110.631 144.51 108.482L146.406 107.723C147.144 109.619 148.239 111.189 149.693 112.432C151.168 113.696 152.927 114.634 154.971 115.245C157.036 115.877 159.28 116.193 161.703 116.193C166.76 116.193 170.7 114.855 173.523 112.179C176.347 109.525 177.759 105.469 177.759 100.011V86.8636H177.506C176.663 89.5606 175.409 91.8151 173.745 93.6271C172.08 95.4181 170.152 96.7666 167.961 97.6726C165.77 98.5575 163.473 99 161.071 99C157.278 99 153.981 97.9781 151.179 95.9343C148.376 93.8905 146.206 91.0566 144.668 87.4325C143.13 83.8085 142.361 79.6155 142.361 74.8537C142.361 70.0497 143.119 65.7514 144.636 61.9588C146.153 58.1662 148.313 55.1742 151.115 52.983C153.918 50.7917 157.236 49.696 161.071 49.696C163.684 49.696 166.065 50.2333 168.214 51.3079C170.363 52.3614 172.228 53.8784 173.808 55.859C175.388 57.8185 176.621 60.1468 177.506 62.8438H177.759V50.4545H179.781V100.011C179.781 103.994 179.054 107.333 177.6 110.03C176.147 112.748 174.071 114.792 171.374 116.162C168.677 117.531 165.454 118.216 161.703 118.216ZM161.071 96.9773C164.442 96.9773 167.371 96.0818 169.857 94.2908C172.365 92.4999 174.303 89.9504 175.673 86.6424C177.063 83.3133 177.759 79.3838 177.759 74.8537C177.759 70.4711 177.084 66.5415 175.736 63.065C174.387 59.5674 172.459 56.8072 169.952 54.7844C167.466 52.7406 164.505 51.7188 161.071 51.7188C157.637 51.7188 154.666 52.7406 152.158 54.7844C149.672 56.8072 147.755 59.5674 146.406 63.065C145.058 66.5415 144.384 70.4711 144.384 74.8537C144.384 79.2363 145.058 83.0921 146.406 86.4212C147.776 89.7292 149.704 92.3208 152.19 94.196C154.697 96.0502 157.658 96.9773 161.071 96.9773ZM209.379 100.011C206.725 100.011 204.27 99.4635 202.015 98.3679C199.782 97.2723 197.981 95.6709 196.611 93.5639C195.262 91.4569 194.588 88.8864 194.588 85.8523C194.588 84.2088 194.852 82.6707 195.378 81.2379C195.905 79.7841 196.832 78.4672 198.16 77.2873C199.487 76.1074 201.341 75.096 203.722 74.2532C206.124 73.4104 209.19 72.7678 212.919 72.3253C215.153 72.0724 217.26 71.7775 219.24 71.4403C221.221 71.1032 222.833 70.5975 224.076 69.9233C225.319 69.2491 225.941 68.2798 225.941 67.0156V64.108C225.941 60.3785 224.687 57.3866 222.18 55.1321C219.672 52.8565 216.333 51.7188 212.161 51.7188C208.747 51.7188 205.766 52.4773 203.216 53.9943C200.667 55.4903 198.887 57.5973 197.875 60.3153L195.979 59.5568C196.737 57.5341 197.907 55.7853 199.487 54.3104C201.067 52.8355 202.943 51.6977 205.113 50.897C207.283 50.0964 209.632 49.696 212.161 49.696C214.626 49.696 216.828 50.0647 218.766 50.8022C220.726 51.5186 222.39 52.5299 223.76 53.8363C225.129 55.1216 226.172 56.6386 226.889 58.3874C227.605 60.1362 227.963 62.0431 227.963 64.108V99H225.941V89.1392H225.688C224.676 91.3305 223.359 93.2479 221.737 94.8913C220.136 96.5137 218.282 97.7779 216.175 98.6839C214.089 99.5689 211.824 100.011 209.379 100.011ZM209.379 97.9886C212.456 97.9886 215.247 97.1669 217.755 95.5234C220.262 93.8589 222.253 91.5517 223.728 88.6019C225.203 85.631 225.941 82.1861 225.941 78.267V70.9347C225.351 71.3771 224.634 71.7669 223.791 72.104C222.97 72.4412 222.032 72.7467 220.979 73.0206C219.946 73.2734 218.819 73.4947 217.597 73.6843C216.375 73.8739 215.068 74.053 213.678 74.2216C209.337 74.7273 205.924 75.4963 203.438 76.5288C200.951 77.5612 199.192 78.857 198.16 80.4162C197.127 81.9754 196.611 83.7874 196.611 85.8523C196.611 89.5185 197.833 92.4577 200.277 94.6701C202.742 96.8825 205.776 97.9886 209.379 97.9886ZM245.393 99V50.4545H247.416V57.6605H247.669C248.554 55.3007 250.134 53.4044 252.41 51.9716C254.706 50.5388 257.467 49.8224 260.69 49.8224C264.357 49.8224 267.275 50.7285 269.445 52.5405C271.636 54.3525 273.143 56.7756 273.964 59.8097H274.217C275.018 56.7756 276.64 54.3525 279.085 52.5405C281.529 50.7285 284.584 49.8224 288.25 49.8224C293.117 49.8224 296.71 51.3711 299.027 54.4684C301.366 57.5446 302.536 61.5163 302.536 66.3835V99H300.513V66.3835C300.513 62.0852 299.544 58.5876 297.605 55.8906C295.667 53.1937 292.548 51.8452 288.25 51.8452C283.952 51.8452 280.665 53.2147 278.389 55.9538C276.114 58.6719 274.976 62.1484 274.976 66.3835V99H272.953V66.3835C272.953 62.0852 271.984 58.5876 270.045 55.8906C268.107 53.1937 264.989 51.8452 260.69 51.8452C257.825 51.8452 255.402 52.4667 253.421 53.7099C251.462 54.953 249.966 56.6702 248.933 58.8615C247.922 61.0528 247.416 63.5601 247.416 66.3835V99H245.393ZM319.958 99V50.4545H321.981V99H319.958ZM320.969 41.6051C320.421 41.6051 319.947 41.4049 319.547 41.0046C319.147 40.6043 318.946 40.1302 318.946 39.5824C318.946 39.0346 319.147 38.5605 319.547 38.1602C319.947 37.7598 320.421 37.5597 320.969 37.5597C321.517 37.5597 321.991 37.7598 322.391 38.1602C322.792 38.5605 322.992 39.0346 322.992 39.5824C322.992 40.1302 322.792 40.6043 322.391 41.0046C321.991 41.4049 321.517 41.6051 320.969 41.6051Z" fill="black"/>
</svg>
